# xmcd
#
# Track frame offsets: 
#        180
#        18184
#        44365
#        64077
#        82793
#        99748
#        122856
#        140583
#        166256
#        187066
#        199965
#        227473
#
# Disc length: 3318 seconds
#
# Revision: 0
# Processed by: cddbd v1.5.1PL0 Copyright (c) Steve Scherf et al.
# Submitted via: ExactAudioCopy v0.95a5
#
DISCID=9e0cf40c
DTITLE=Daddy Cool - Fat Blues
DYEAR=1900
DGENRE=Blues
TTITLE0=Safronia "B"
TTITLE1=Jelly Jelly
TTITLE2=Route 66
TTITLE3=Blues In The Night
TTITLE4=Kansas City
TTITLE5=House Of The Risin' Sun
TTITLE6=Satchel-Mouth Baby
TTITLE7=Dead Egyptian Blues
TTITLE8=After Hours
TTITLE9=It Ain't The Meat It's The Motion
TTITLE10=Fat Rebecca Blues
TTITLE11=Bumble Boogie
EXTD=
EXTT0=
EXTT1=
EXTT2=
EXTT3=
EXTT4=
EXTT5=
EXTT6=
EXTT7=
EXTT8=
EXTT9=
EXTT10=
EXTT11=
PLAYORDER=
